<svg width="96" height="96" viewBox="0 0 96 96" fill="none" xmlns="http://www.w3.org/2000/svg">
<g clip-path="url(#clip0_4_18)">
<path d="M84 72V76C84 80.4 80.4 84 76 84H20C15.56 84 12 80.4 12 76V20C12 15.6 15.56 12 20 12H76C80.4 12 84 15.6 84 20V24H48C43.56 24 40 27.6 40 32V64C40 68.4 43.56 72 48 72H84ZM48 64H88V32H48V64ZM64 54C60.68 54 58 51.32 58 48C58 44.68 60.68 42 64 42C67.32 42 70 44.68 70 48C70 51.32 67.32 54 64 54Z" fill="black"/>
</g>
<defs>
<clipPath id="clip0_4_18">
<rect width="96" height="96" fill="white"/>
</clipPath>
</defs>
</svg>
