<svg width="96" height="96" viewBox="0 0 96 96" fill="none" xmlns="http://www.w3.org/2000/svg">
<g clip-path="url(#clip0_4_21)">
<path d="M47.2 43.6C38.12 41.24 35.2 38.8 35.2 35C35.2 30.64 39.24 27.6 46 27.6C53.12 27.6 55.76 31 56 36H64.84C64.56 29.12 60.36 22.8 52 20.76V12H40V20.64C32.24 22.32 26 27.36 26 35.08C26 44.32 33.64 48.92 44.8 51.6C54.8 54 56.8 57.52 56.8 61.24C56.8 64 54.84 68.4 46 68.4C37.76 68.4 34.52 64.72 34.08 60H25.28C25.76 68.76 32.32 73.68 40 75.32V84H52V75.4C59.8 73.92 66 69.4 66 61.2C66 49.84 56.28 45.96 47.2 43.6Z" fill="black"/>
</g>
<defs>
<clipPath id="clip0_4_21">
<rect width="96" height="96" fill="white"/>
</clipPath>
</defs>
</svg>
