<svg width="96" height="96" viewBox="0 0 96 96" fill="none" xmlns="http://www.w3.org/2000/svg">
<path d="M28 43.2V28H20V32C20 34.5333 20.7333 36.8167 22.2 38.85C23.6667 40.8833 25.6 42.3333 28 43.2ZM68 43.2C70.4 42.3333 72.3333 40.8833 73.8 38.85C75.2667 36.8167 76 34.5333 76 32V28H68V43.2ZM44 76V63.6C40.7333 62.8667 37.8167 61.4833 35.25 59.45C32.6833 57.4167 30.8 54.8667 29.6 51.8C24.6 51.2 20.4167 49.0167 17.05 45.25C13.6833 41.4833 12 37.0667 12 32V28C12 25.8 12.7833 23.9167 14.35 22.35C15.9167 20.7833 17.8 20 20 20H28C28 17.8 28.7833 15.9167 30.35 14.35C31.9167 12.7833 33.8 12 36 12H60C62.2 12 64.0833 12.7833 65.65 14.35C67.2167 15.9167 68 17.8 68 20H76C78.2 20 80.0833 20.7833 81.65 22.35C83.2167 23.9167 84 25.8 84 28V32C84 37.0667 82.3167 41.4833 78.95 45.25C75.5833 49.0167 71.4 51.2 66.4 51.8C65.2 54.8667 63.3167 57.4167 60.75 59.45C58.1833 61.4833 55.2667 62.8667 52 63.6V76H64C65.1333 76 66.0833 76.3833 66.85 77.15C67.6167 77.9167 68 78.8667 68 80C68 81.1333 67.6167 82.0833 66.85 82.85C66.0833 83.6167 65.1333 84 64 84H32C30.8667 84 29.9167 83.6167 29.15 82.85C28.3833 82.0833 28 81.1333 28 80C28 78.8667 28.3833 77.9167 29.15 77.15C29.9167 76.3833 30.8667 76 32 76H44Z" fill="black"/>
</svg>
