<svg width="96" height="96" viewBox="0 0 96 96" fill="none" xmlns="http://www.w3.org/2000/svg">
<g clip-path="url(#clip0_4_56)">
<path d="M50 27.6C57.12 27.6 59.76 31 60 36H68.84C68.56 29.12 64.36 22.8 56 20.76V12H44V20.64C41.88 21.12 39.88 21.84 38.08 22.8L43.96 28.68C45.6 28 47.6 27.6 50 27.6ZM21.32 16.24L16.24 21.32L30 35.08C30 43.4 36.24 47.92 45.64 50.72L59.68 64.76C58.32 66.68 55.48 68.4 50 68.4C41.76 68.4 38.52 64.72 38.08 60H29.28C29.76 68.76 36.32 73.68 44 75.32V84H56V75.4C59.84 74.68 63.28 73.2 65.8 70.92L74.68 79.8L79.76 74.72L21.32 16.24Z" fill="black"/>
</g>
<defs>
<clipPath id="clip0_4_56">
<rect width="96" height="96" fill="white"/>
</clipPath>
</defs>
</svg>
